<svg width="35" height="33" viewBox="0 0 35 33" fill="none" xmlns="http://www.w3.org/2000/svg">
<path d="M17.4564 19.5312C12.3442 19.5312 8.20225 15.0707 8.20225 9.57258C8.20225 4.075 12.3442 0 17.4564 0C22.5695 0 26.7149 4.075 26.7149 9.57258C26.7149 15.0707 22.5693 19.5312 17.4564 19.5312ZM3.06119 32.9938C3.06119 32.9938 1.09825 33.1102 0.233641 32.04C-0.233536 31.4618 0.0919 30.2902 0.41138 29.6365L1.1938 28.0347C1.1938 28.0347 3.35764 23.6875 5.82084 21.1683C7.33393 19.6235 9.13356 19.9753 10.2975 20.4777C11.0144 20.7868 11.8251 21.6875 12.4174 22.1648C13.2337 22.8225 14.6748 23.5699 17.0308 23.612H18.4763C20.8308 23.5699 22.2719 22.8225 23.0876 22.1648C23.6793 21.6876 24.4675 20.759 25.178 20.4397C26.2463 19.9593 27.8722 19.6637 29.3458 21.1684C31.8098 23.6877 33.7612 28.1138 33.7612 28.1138L34.5631 29.6845C34.8948 30.3337 35.2347 31.4995 34.7805 32.0854C33.97 33.1329 32.1503 32.9939 32.1503 32.9939L3.06119 32.9938Z" fill="white"/>
</svg>
