<svg width="221" height="149" viewBox="0 0 221 149" fill="none" xmlns="http://www.w3.org/2000/svg">
<g clip-path="url(#clip0_19_9)">
<path opacity="0.996" fill-rule="evenodd" clip-rule="evenodd" d="M131.607 -0.0432129C131.694 -0.0432129 131.78 -0.0432129 131.866 -0.0432129C150.706 32.5043 169.526 65.0684 188.325 97.649C173.715 97.7638 159.111 97.7638 144.513 97.649C129.38 71.3529 114.258 45.0512 99.1478 18.7437C99.2143 18.6383 99.3006 18.5519 99.4068 18.4846C110.174 12.35 120.908 6.17406 131.607 -0.0432129Z" fill="#AAAD0A"/>
<path opacity="0.995" fill-rule="evenodd" clip-rule="evenodd" d="M94.3135 34.2484C94.4939 34.2537 94.6234 34.3401 94.7019 34.5075C106.831 55.5547 118.96 76.6018 131.089 97.649C119.723 97.7354 108.356 97.7639 96.9896 97.7354C96.9896 100.845 96.9896 103.954 96.9896 107.064C93.8533 107.064 90.7162 107.064 87.5799 107.064C87.5945 103.926 87.5799 100.787 87.5367 97.649C78.9798 82.7854 70.3901 67.943 61.7678 53.1217C72.6218 46.8283 83.4703 40.5372 94.3135 34.2484Z" fill="#AAAD0A"/>
<path opacity="0.994" fill-rule="evenodd" clip-rule="evenodd" d="M55.9838 67.7626C56.1114 67.74 56.2264 67.7687 56.3291 67.849C62.0337 77.7964 67.7601 87.7295 73.5084 97.649C58.9478 97.75 44.3871 97.7639 29.8264 97.6922C27.6786 94.0117 25.5923 90.3121 23.5676 86.5927C34.3996 80.3464 45.205 74.0697 55.9838 67.7626Z" fill="#AAAD0A"/>
<path opacity="0.988" fill-rule="evenodd" clip-rule="evenodd" d="M64.8756 148.957C63.408 148.957 61.9405 148.957 60.4729 148.957C52.3132 147.674 46.8026 143.154 43.941 135.396C41.9446 128.301 43.3259 121.967 48.0848 116.393C53.3994 111.06 59.7734 109.116 67.2065 110.562C69.5382 111.081 71.682 112.016 73.6379 113.37C73.6811 108.129 73.6955 102.889 73.6811 97.6489C76.8176 97.6489 79.9543 97.6489 83.0908 97.6489C83.0908 114.492 83.0908 131.336 83.0908 148.179C79.9543 148.179 76.8176 148.179 73.6811 148.179C73.7097 147.371 73.6809 146.565 73.5947 145.761C70.9238 147.487 68.0174 148.552 64.8756 148.957ZM61.8541 118.725C66.6085 118.591 70.1623 120.578 72.5156 124.685C74.5234 129.115 73.9191 133.146 70.7028 136.778C66.6511 140.513 62.1765 141.104 57.2787 138.548C53.1591 135.817 51.5044 132.002 52.3149 127.103C53.4567 123.053 56.0322 120.389 60.0412 119.114C60.6516 118.954 61.2559 118.824 61.8541 118.725Z" fill="#AAAD0A"/>
<path opacity="0.987" fill-rule="evenodd" clip-rule="evenodd" d="M122.456 148.957C120.96 148.957 119.463 148.957 117.967 148.957C109.816 147.64 104.334 143.091 101.522 135.309C99.5528 128.201 100.963 121.867 105.752 116.306C111.055 111.03 117.4 109.115 124.787 110.562C127.094 111.068 129.223 111.975 131.176 113.283C131.262 108.072 131.29 102.861 131.262 97.6489C134.37 97.6489 137.478 97.6489 140.585 97.6489C140.585 114.492 140.585 131.336 140.585 148.179C137.478 148.179 134.37 148.179 131.262 148.179C131.277 147.373 131.262 146.567 131.219 145.761C128.533 147.487 125.612 148.552 122.456 148.957ZM119.349 118.725C124.679 118.606 128.434 120.966 130.614 125.808C132.123 130.694 130.9 134.74 126.946 137.944C123.069 140.625 119.069 140.826 114.946 138.548C110.698 135.675 109.101 131.716 110.155 126.672C111.666 122.207 114.731 119.558 119.349 118.725Z" fill="#AAAD0A"/>
<path opacity="0.99" fill-rule="evenodd" clip-rule="evenodd" d="M21.7979 148.957C20.3015 148.957 18.8051 148.957 17.3088 148.957C9.92205 147.831 4.64162 143.886 1.46759 137.123C0.691017 135.224 0.187437 133.266 -0.0431519 131.25C-0.0431519 130.04 -0.0431519 128.831 -0.0431519 127.622C1.06218 119.706 5.32104 114.25 12.7334 111.253C18.5138 109.346 24.0963 109.806 29.4811 112.635C29.8482 112.869 30.2079 113.114 30.5602 113.37C30.6033 112.391 30.6177 111.412 30.6033 110.433C33.6824 110.433 36.7614 110.433 39.8404 110.433C39.8404 123.015 39.8404 135.597 39.8404 148.179C36.7614 148.179 33.6824 148.179 30.6033 148.179C30.6177 147.373 30.6033 146.567 30.5602 145.761C27.8758 147.486 24.9551 148.552 21.7979 148.957ZM18.6037 118.725C23.4308 118.541 27.0423 120.528 29.4379 124.685C31.5992 129.639 30.6928 133.943 26.7186 137.598C22.8697 140.506 18.7835 140.88 14.46 138.721C10.2912 136.144 8.52143 132.416 9.15079 127.535C10.4334 122.581 13.5843 119.644 18.6037 118.725Z" fill="#AAAD0A"/>
<path opacity="0.99" fill-rule="evenodd" clip-rule="evenodd" d="M165.362 148.957C163.894 148.957 162.426 148.957 160.959 148.957C153.807 147.877 148.613 144.106 145.377 137.641C143.215 132.673 143.042 127.635 144.859 122.526C147.205 116.809 151.306 112.965 157.16 110.994C162.609 109.402 167.847 109.921 172.872 112.549C173.246 112.793 173.621 113.039 173.994 113.283C174.081 112.335 174.109 111.385 174.081 110.433C177.217 110.433 180.354 110.433 183.49 110.433C183.49 123.015 183.49 135.597 183.49 148.179C180.354 148.179 177.217 148.179 174.081 148.179C174.095 147.373 174.081 146.567 174.038 145.761C171.389 147.503 168.497 148.568 165.362 148.957ZM162.426 118.725C166.955 118.564 170.394 120.407 172.743 124.253C174.978 128.784 174.46 132.958 171.189 136.778C167.386 140.375 163.113 141.052 158.369 138.808C153.994 136.141 152.196 132.269 152.973 127.19C154.028 123.226 156.489 120.563 160.355 119.2C161.05 119.013 161.741 118.854 162.426 118.725Z" fill="#AAAD0A"/>
<path opacity="0.988" fill-rule="evenodd" clip-rule="evenodd" d="M220.957 134.791C220.957 135.77 220.957 136.749 220.957 137.728C220.352 142.52 217.79 145.788 213.274 147.532C211.223 148.279 209.121 148.754 206.972 148.957C205.101 148.957 203.231 148.957 201.36 148.957C198.524 148.686 195.847 147.865 193.332 146.495C189.413 144.111 187.312 140.613 187.03 136C190.339 136 193.649 136 196.958 136C197.034 138.624 198.3 140.395 200.756 141.312C203.044 142.095 205.345 142.152 207.662 141.485C209.11 140.929 210.131 139.936 210.727 138.505C210.973 136.74 210.239 135.574 208.526 135.007C207.933 134.794 207.328 134.621 206.713 134.489C203.791 134.054 200.885 133.536 197.994 132.934C195.711 132.49 193.611 131.626 191.692 130.343C189.183 128.216 187.917 125.495 187.893 122.18C188.019 118.025 189.832 114.844 193.332 112.635C196.478 110.873 199.859 110.023 203.475 110.087C207.447 109.976 211.087 110.998 214.396 113.154C217.5 115.463 219.197 118.558 219.489 122.439C216.324 122.439 213.159 122.439 209.993 122.439C210.03 119.959 208.879 118.361 206.54 117.645C204.276 117.195 202.031 117.282 199.806 117.904C198.13 118.539 197.426 119.734 197.691 121.489C197.979 122.08 198.397 122.555 198.943 122.914C199.594 123.298 200.285 123.585 201.015 123.778C204.614 124.489 208.211 125.208 211.806 125.937C214.759 126.672 217.219 128.183 219.187 130.472C220.126 131.778 220.715 133.217 220.957 134.791Z" fill="#AAAD0A"/>
<path opacity="0.984" fill-rule="evenodd" clip-rule="evenodd" d="M87.5799 110.433C90.7162 110.433 93.8534 110.433 96.9897 110.433C96.9897 123.015 96.9897 135.597 96.9897 148.179C93.8534 148.179 90.7162 148.179 87.5799 148.179C87.5799 135.597 87.5799 123.015 87.5799 110.433Z" fill="#AAAD0A"/>
</g>
<defs>
<clipPath id="clip0_19_9">
<rect width="221" height="149" fill="white"/>
</clipPath>
</defs>
</svg>
