<svg width="341" height="151" viewBox="0 0 341 151" fill="none" xmlns="http://www.w3.org/2000/svg">
<g clip-path="url(#clip0_19_45)">
<path d="M339.788 50.6956H328.882C323.426 50.7108 299.291 55.8418 299.175 79.8763C298.806 95.7305 310.005 104.625 313.127 107.224C318.117 110.166 324.376 112.821 324.033 119.38C323.437 129.333 317.557 132.96 311.914 134.576V150.987C323.053 150.997 340.778 142.067 341.005 119.988C341.045 107.122 331.953 99.1495 326.462 95.067C321.941 92.4533 316.041 88.6949 316.158 81.0819C315.961 71.2148 323.426 67.7958 330.094 67.7097H339.793V50.6956H339.788ZM59.1409 31.858C76.6034 13.2939 114.286 -9.92003 130.663 4.50574C147.443 18.7998 134.562 63.6271 96.7177 104.195C58.7924 144.169 23.9332 157.086 8.82969 146.742C-6.37481 135.812 -1.82356 105.42 21.554 82.9155C45.1588 59.8282 79.2553 37.7944 96.1166 50.6956C99.7132 52.9901 99.7132 58.3086 99.7586 62.8572C107.29 54.5097 121.692 25.6379 113.089 14.8388C105.017 4.36391 75.4719 19.7521 59.7471 33.0736L59.1409 31.858Z" fill="#213785"/>
<path d="M93.692 59.818C89.1004 53.7498 73.1836 57.5488 59.7421 69.5432C45.9115 81.8669 37.5768 95.538 42.7747 102.371C48.1897 109.219 67.1322 99.3369 78.5381 87.7831C89.8631 76.5434 98.1928 66.6662 93.692 59.818Z" fill="white"/>
<path d="M231.29 67.7198H248.869V50.7006H231.29V67.7198ZM231.29 150.997H248.869V73.7981H231.29V150.997ZM300.999 150.997C273.595 151.104 251.167 128.604 251.293 101.155C251.167 73.1143 273.595 50.6246 300.999 50.7006V67.117C282.617 67.0157 267.508 82.176 267.66 101.16C267.508 119.562 282.617 134.713 300.999 134.591H305.848V151.002H300.999V150.997ZM167.638 119.385C167.472 134.733 178.676 148.13 193.703 150.992V133.37C188.127 131.055 184.161 125.701 184.005 119.385V82.9155C184.252 70.5361 177.564 60.0156 167.638 54.3476C162.945 51.9493 157.752 50.6979 152.484 50.6956H143.998V67.7198H152.484C160.657 67.7654 167.376 74.3147 167.638 82.9155L167.037 93.2536C163.936 89.4648 158.627 87.3779 151.883 87.1753C134.401 86.4763 120.116 101.439 120.368 119.385C120.116 136.754 134.386 151.058 151.883 150.992H162.789V133.973H151.883C143.71 134.135 136.992 127.398 136.729 119.385C136.992 110.789 143.71 104.053 151.883 104.194C160.274 104.053 167.467 110.789 167.638 119.385ZM227.653 50.6956H216.732C211.287 50.7108 187.147 55.8418 187.036 79.8763C186.662 95.7305 197.855 104.625 200.982 107.224C205.983 110.166 212.232 112.821 211.888 119.38C211.292 129.333 205.412 132.96 199.77 134.576V150.987C210.908 150.997 228.633 142.067 228.861 119.988C228.901 107.122 219.809 99.1495 214.313 95.067C209.797 92.4533 203.897 88.6949 204.008 81.0819C203.811 71.2148 211.287 67.7958 217.955 67.7097H227.658V50.6956H227.653Z" fill="#213785"/>
</g>
<defs>
<clipPath id="clip0_19_45">
<rect width="341" height="151" fill="white"/>
</clipPath>
</defs>
</svg>
