<svg width="33" height="36" viewBox="0 0 33 36" fill="none" xmlns="http://www.w3.org/2000/svg">
<path d="M11 32.4C11 34.38 9.35 36 7.33333 36C5.31667 36 3.685 34.38 3.685 32.4C3.685 30.42 5.31667 28.8 7.33333 28.8C9.35 28.8 11 30.42 11 32.4ZM25.6667 28.8C23.65 28.8 22.0183 30.42 22.0183 32.4C22.0183 34.38 23.65 36 25.6667 36C27.6833 36 29.3333 34.38 29.3333 32.4C29.3333 30.42 27.6833 28.8 25.6667 28.8ZM26.3927 19.8C28.1105 19.8 29.601 18.63 29.9713 16.9812L33 5.4H7.33333V3.6C7.33333 1.611 5.6925 0 3.66667 0H0V3.6H3.66667V23.4C3.66667 25.389 5.3075 27 7.33333 27H29.3333C29.3333 25.011 27.6925 23.4 25.6667 23.4H7.33333V19.8H26.3927Z" fill="white"/>
</svg>
