<svg width="37" height="37" viewBox="0 0 37 37" fill="none" xmlns="http://www.w3.org/2000/svg">
<path d="M0.375934 14.7713C0.314377 15.0724 0.259998 15.3761 0.213249 15.6822C0.166564 15.9885 0.127186 16.2971 0.0955676 16.6082C0.0323947 17.23 0 17.861 0 18.4997C0 19.1384 0.0323947 19.7693 0.0955676 20.3913C0.127186 20.7022 0.16637 21.011 0.213249 21.3172C0.259934 21.6233 0.314377 21.9272 0.375934 22.2282C0.43749 22.5291 0.506547 22.8276 0.582458 23.1231C0.734668 23.7141 0.91507 24.2939 1.12263 24.8605C1.22634 25.1438 1.33691 25.4241 1.45388 25.7006C1.57079 25.9772 1.69448 26.2505 1.82426 26.5201C1.88917 26.6549 1.95584 26.7888 2.02393 26.9218C2.16004 27.1877 2.30248 27.4499 2.45107 27.7081C2.89664 28.4829 3.39666 29.2223 3.94588 29.9214C4.22056 30.2708 4.50739 30.6101 4.80599 30.9387C5.00508 31.1579 5.20921 31.372 5.41858 31.5812C5.62776 31.7906 5.84204 31.9948 6.06104 32.1939C7.04659 33.0897 8.12926 33.8805 9.29146 34.5488C9.54971 34.6972 9.81185 34.8399 10.0778 34.976C10.6096 35.2484 11.1563 35.4957 11.7165 35.7167C11.9965 35.8272 12.28 35.931 12.5665 36.028C14.429 36.6583 16.4246 37 18.4999 37C19.9148 37 21.2922 36.8405 22.6162 36.5398C23.2341 36.3994 23.8406 36.2287 24.4334 36.0281C24.7199 35.9312 25.0032 35.8273 25.2834 35.7169C25.8435 35.4962 26.3902 35.2487 26.922 34.9761C27.188 34.84 27.4502 34.6975 27.7083 34.549C28.8705 33.8808 29.9532 33.0898 30.9388 32.1941C31.1579 31.995 31.372 31.7906 31.5812 31.5815C31.7904 31.3723 31.9948 31.158 32.1939 30.939C32.4924 30.6105 32.7794 30.2712 33.0539 29.9216C33.4885 29.3687 33.8911 28.7901 34.2614 28.1892C34.3593 28.0303 34.4556 27.8704 34.5488 27.7082C34.6975 27.4501 34.8399 27.1879 34.976 26.922C35.0441 26.789 35.1105 26.6551 35.1755 26.5204C35.3056 26.2509 35.429 25.9775 35.546 25.7009C35.663 25.4242 35.7736 25.1441 35.8772 24.8607C36.0847 24.294 36.2652 23.7143 36.4174 23.1233C36.4935 22.8277 36.5625 22.5293 36.624 22.2284C36.6855 21.9272 36.7399 21.6235 36.7867 21.3173C36.8333 21.0111 36.8727 20.7024 36.9044 20.3914C36.9675 19.7696 37 19.1386 37 18.4999C37 17.8613 36.9675 17.2302 36.9044 16.6084C36.8727 16.2973 36.8335 15.9887 36.7867 15.6824C36.7399 15.3763 36.6856 15.0724 36.624 14.7715C36.5624 14.4705 36.4934 14.1719 36.4174 13.8766C36.2652 13.2856 36.0847 12.7058 35.8772 12.1391C35.8254 11.9975 35.7718 11.8566 35.7166 11.7165C35.551 11.2964 35.3704 10.8839 35.1755 10.4794C35.1106 10.3447 35.0439 10.2108 34.9758 10.0778C34.8397 9.81188 34.6972 9.54968 34.5486 9.2915C34.103 8.51667 33.6031 7.77728 33.0539 7.07824C32.7792 6.72881 32.4923 6.38948 32.1937 6.06087C31.9947 5.84187 31.7905 5.62758 31.5812 5.41841C31.372 5.20904 31.1577 5.00484 30.9387 4.80581C30.5145 4.42018 30.0719 4.05453 29.613 3.7093C29.0059 3.25248 28.3701 2.83161 27.7082 2.45095C27.45 2.30255 27.1878 2.15991 26.9219 2.0238C26.801 1.96186 26.6791 1.90153 26.5567 1.84237C26.4099 1.77131 26.2621 1.70147 26.1131 1.63423C26.0507 1.6061 25.9877 1.57939 25.9252 1.55191C25.7131 1.45874 25.4996 1.36854 25.2833 1.28325C25.2804 1.28202 25.2772 1.28105 25.2741 1.27969C25.0437 1.1891 24.8104 1.10382 24.5755 1.02209C24.528 1.00566 24.4809 0.988075 24.4332 0.972039C23.8853 0.786658 23.3259 0.626947 22.7564 0.493035C22.5785 0.45107 22.3997 0.41111 22.2199 0.374319C22.0903 0.347808 21.9601 0.323237 21.8296 0.299507C20.8565 0.122596 19.8569 0.0225018 18.8372 0.00426758C18.7247 0.00219845 18.6125 0 18.4995 0C18.3078 0 18.1169 0.00394428 17.9265 0.00969905C16.0567 0.0666648 14.2564 0.400118 12.566 0.972103C12.2795 1.06909 11.9961 1.17294 11.716 1.28331C11.6294 1.31752 11.5439 1.35334 11.4578 1.38877C11.2657 1.46792 11.0748 1.54907 10.886 1.63429C10.6127 1.75799 10.3432 1.88776 10.0773 2.02406C9.81139 2.16017 9.54926 2.30268 9.29101 2.45121C8.25205 3.04873 7.27678 3.74422 6.3773 4.52499C6.27067 4.61759 6.16502 4.71096 6.06053 4.80601C5.84146 5.00503 5.62717 5.20942 5.41806 5.4186C5.20895 5.62778 5.0045 5.842 4.80547 6.06107C4.50687 6.38954 4.21998 6.72888 3.94537 7.07843C3.39608 7.77728 2.89606 8.51693 2.45049 9.29169C2.3019 9.54988 2.15945 9.81208 2.02334 10.078C1.95526 10.211 1.88879 10.3449 1.82374 10.4796C1.62885 10.8841 1.44839 11.2966 1.2826 11.7166C1.22738 11.8568 1.17377 11.9976 1.12192 12.1393C0.914358 12.7059 0.733957 13.2856 0.581747 13.8767C0.506483 14.1717 0.43749 14.4703 0.375934 14.7713ZM15.365 1.27064C15.4012 1.332 15.4315 1.40281 15.5199 1.4297C15.6931 1.34002 15.8658 1.43565 16.0565 1.4297C16.2424 1.42317 16.4083 1.33808 16.6131 1.37015C16.975 1.42673 17.4805 1.78055 17.7657 1.58858C17.8375 1.54008 17.8205 1.45641 17.8852 1.33058C17.9368 1.23003 18.0173 1.11869 18.0668 0.994799C18.2109 0.991243 18.3551 0.989238 18.4999 0.989238C19.6963 0.989238 20.8652 1.11015 21.9949 1.33983C21.9476 1.46449 21.7921 1.40888 21.6617 1.46921C21.5392 1.52598 21.4935 1.64315 21.3635 1.66765C21.0021 1.73574 20.7025 1.57707 20.3897 1.58851C20.375 1.72384 20.5443 1.8026 20.6281 1.84612C20.9117 1.99471 21.1425 1.97434 21.5422 1.96542C21.7471 1.96089 21.9825 2.02658 22.1585 1.90567C22.27 1.8295 22.2641 1.66171 22.3574 1.56853C22.3972 1.52915 22.4555 1.48958 22.5214 1.45596C22.7177 1.50225 22.9126 1.55249 23.1065 1.60532C23.0738 1.7391 22.8573 1.70684 22.8545 1.88608C22.9928 1.96897 23.3143 1.84075 23.4386 1.69927C23.4866 1.7135 23.5349 1.72779 23.5828 1.74221C23.8639 1.82769 24.1421 1.91989 24.4171 2.01882C24.8092 2.16011 25.1947 2.31503 25.5733 2.48283C25.5006 2.52576 25.4231 2.58079 25.3592 2.5804C25.1949 2.57937 25.1247 2.35997 24.9414 2.44112C24.9255 2.6536 25.1664 2.73966 25.319 2.83781C25.4842 2.94405 25.6577 3.0499 25.7164 3.2347C25.5548 3.5774 25.2968 3.21672 25.0408 3.21511C24.7587 3.2131 24.347 3.75114 24.1066 3.31423C24.1665 3.08268 24.4219 3.04673 24.4843 2.81816C24.4294 2.82747 24.3764 2.84525 24.3236 2.86646C24.2292 2.90383 24.136 2.95427 24.0396 3.00612C23.9131 3.07421 23.7802 3.14185 23.6295 3.17547C23.4909 3.20599 23.3559 3.19862 23.232 3.23463C22.9942 3.30427 22.828 3.47963 22.5764 3.57242C22.4781 3.60843 22.3606 3.59731 22.2583 3.63158C22.0183 3.7117 21.7308 3.85498 21.4833 3.9889C21.2302 4.12559 20.9448 4.26926 20.7876 4.40557C20.7028 4.47876 20.4819 4.73915 20.4895 4.82185C20.4996 4.93998 20.7224 4.97917 20.728 5.09983C20.7229 5.17302 20.5989 5.33092 20.6883 5.43716C20.7697 5.53395 20.9327 5.45559 21.1054 5.47673C21.4092 5.51436 21.6079 5.76486 21.8408 5.8934C22.017 5.99059 22.2786 6.10633 22.4775 6.13148C22.7505 6.16569 23.0561 6.05195 23.0934 6.27037C23.1295 6.48032 22.8363 6.55526 22.8153 6.68704C22.9624 6.88096 22.7154 6.97355 22.716 7.14354C22.7166 7.28121 22.8856 7.4878 23.0337 7.50028C23.2341 7.51728 23.5273 7.30338 23.6105 7.10358C23.7094 6.86557 23.6673 6.54285 23.849 6.3695C24.7752 6.39504 25.5587 5.94959 25.499 5.0007C25.493 4.90694 25.4397 4.78622 25.4595 4.68315C25.4885 4.52978 25.7526 4.40104 25.7175 4.20712C25.8174 4.17641 25.8771 4.09571 25.9281 4.00493C26.0043 3.8696 26.0636 3.71506 26.2052 3.66404C26.2151 3.66029 26.2234 3.65396 26.2343 3.65156C26.3153 3.63339 26.4001 3.64943 26.4892 3.67575C26.6479 3.72262 26.82 3.80339 27.0094 3.79052C27.1057 3.78399 27.2308 3.69773 27.3276 3.71137C27.5219 3.73847 27.6388 3.97752 27.7848 4.08834C27.9138 4.18682 28.05 4.1554 28.0829 4.28659C28.0448 4.50683 27.8915 4.5151 27.9038 4.71736C27.9041 4.71956 27.9037 4.72092 27.9037 4.72311C27.9184 4.90494 28.1075 5.04286 28.2018 5.06083C28.3468 5.08793 28.5542 5.01021 28.6988 4.94154C28.855 4.86776 28.9976 4.70831 29.134 4.59748C29.3289 4.74691 29.5206 4.90002 29.709 5.05708C29.7305 5.14535 29.7455 5.22488 29.7524 5.27868C29.7802 5.49315 29.7234 5.657 29.7328 5.85448C29.7584 6.18903 30.1807 6.15502 30.3884 6.33031C30.4511 6.38353 30.4757 6.51925 30.5278 6.58831C30.6288 6.72267 30.7506 6.72267 30.7663 6.86589C30.8036 7.20859 30.4552 7.2375 30.4877 7.61996C30.4159 7.76816 30.2346 7.75924 30.2492 7.9571C30.2724 8.27032 30.7232 8.0303 30.8456 8.27465C30.9119 8.40604 30.8346 8.50374 30.7858 8.69093C30.9401 8.87431 30.939 9.16696 30.667 9.16735C30.5017 9.16735 30.4561 8.99005 30.289 8.94893C30.1961 8.92578 30.0696 8.9303 29.9513 8.90935C29.85 8.89138 29.7295 8.86131 29.6335 8.8498C29.3881 8.8207 29.1225 8.89196 28.9774 8.75068C29.2139 8.43707 29.5281 8.128 29.8322 7.85791C29.9226 7.77715 30.1167 7.722 30.0707 7.56035C29.9015 7.41195 29.6937 7.56946 29.5341 7.65947C29.3665 7.75368 29.1666 7.8894 28.9774 7.91746C28.6487 7.96615 28.2126 7.82131 27.944 7.99661C27.9069 8.14636 28.2498 8.08823 28.202 8.31422C28.0706 8.33575 27.946 8.34629 27.8448 8.25447C27.7523 8.17138 27.8053 8.04653 27.7454 7.99648C27.6436 7.91216 27.2604 7.88921 27.0893 7.91733C26.8806 7.95135 26.6958 8.0762 26.6717 8.25447C26.9225 8.37177 27.3362 8.13375 27.4272 8.43332C27.2897 8.68026 26.966 8.81618 27.0094 9.14724C27.0265 9.27507 27.1786 9.44584 27.288 9.46485C27.398 9.4838 27.4598 9.37497 27.566 9.38512C27.6784 9.3956 27.6529 9.52382 27.7849 9.50442C27.9762 9.42289 28.0821 9.1548 28.3013 9.16728C28.5643 9.48606 28.0638 9.64137 27.7849 9.7425C27.4668 9.85766 27.0531 9.91883 26.8107 10.0207C26.6837 10.0737 26.2029 10.5377 26.135 10.179C26.0863 9.92032 26.3729 9.99513 26.4331 9.78227C26.1255 9.72252 25.8388 9.91443 25.5588 10.0209C25.1594 10.1717 24.4821 10.2672 24.3857 10.7152C24.3668 10.8048 24.4248 10.9726 24.3661 11.0323C24.3184 11.0804 24.0334 11.0891 23.9088 11.1315C23.7171 11.1972 23.5499 11.3375 23.4315 11.3695C23.342 11.3941 23.2101 11.3871 23.1534 11.4097C22.9954 11.4708 22.9371 11.6841 22.756 11.826C22.6817 11.8839 22.5169 11.9261 22.4578 11.9847C22.3549 12.087 22.3412 12.343 22.1597 12.3814C22.0442 12.3914 21.9503 12.2947 21.8415 12.3614C21.8284 12.6145 21.931 12.9587 21.8218 13.2146C21.5864 13.4061 21.328 13.5416 21.0268 13.7106C20.8603 13.8044 20.7111 13.8283 20.5099 13.929C20.3672 14.0001 20.2367 14.1694 20.0726 14.2661C19.6931 14.4891 19.2349 14.753 19.2378 15.3178C19.2384 15.44 19.3016 15.5718 19.3171 15.7147C19.3267 15.7988 19.3071 15.8809 19.3171 15.9727C19.3407 16.18 19.4913 16.4442 19.3171 16.5874C19.0496 16.4778 18.7093 16.4406 18.5222 16.2503C18.4709 16.0544 18.6257 15.893 18.602 15.7147C18.5829 15.5714 18.3811 15.3162 18.2636 15.2978C18.1427 15.2788 18.0312 15.407 17.9063 15.3969C17.7577 15.3852 17.6196 15.1811 17.4289 15.1589C17.1493 15.1263 16.9435 15.2226 16.6339 15.1791C16.3341 15.3389 16.2464 15.6235 15.879 15.5954C15.7496 15.5859 15.6311 15.4871 15.4816 15.4565C15.3195 15.423 15.0736 15.3659 14.9048 15.3775C14.5664 15.4001 14.3211 15.6431 14.0305 15.7938C13.774 15.9271 13.411 16.093 13.3348 16.3693C13.293 16.5181 13.3283 16.7277 13.275 16.8654C13.2399 16.956 13.1631 17.0367 13.116 17.1228C12.8932 17.5292 12.7084 18.0664 12.8775 18.6509C12.9027 18.7375 13.1241 19.2266 13.2153 19.3254C13.3178 19.4352 13.6194 19.6 13.7915 19.603C13.9371 19.6059 14.1077 19.5291 14.2488 19.5039C14.4123 19.4749 14.6172 19.4722 14.7658 19.4247C15.1955 19.2874 15.1106 18.7072 15.5408 18.5117C15.7286 18.427 15.9458 18.41 16.276 18.393C16.3809 18.4811 16.4302 18.6356 16.4155 18.7697C16.4045 18.871 16.3081 18.9628 16.2565 19.1072C16.2113 19.2337 16.2018 19.3821 16.1571 19.4843C16.098 19.618 15.966 19.7158 15.9187 19.8415C15.8876 19.9233 15.9046 20.025 15.8791 20.099C15.8334 20.2297 15.6583 20.3219 15.7396 20.4563C16.1652 20.6252 16.6802 20.4082 17.0516 20.4764C17.2084 20.5048 17.5314 20.6916 17.5285 20.9329C17.5266 21.1132 17.389 21.2314 17.3694 21.429C17.3453 21.6772 17.2414 21.9816 17.2304 22.1826C17.2128 22.5119 17.7142 23.0799 18.0651 23.0754C18.443 23.0705 18.6634 22.7002 19.1187 22.8971C19.2699 22.9622 19.4294 23.2067 19.5962 23.1946C19.7337 23.1848 19.9415 22.9442 20.0334 22.7778C20.1454 22.5749 20.1534 22.4041 20.3512 22.3018C20.5645 22.1916 20.7344 22.2446 21.0074 22.1429C21.1292 22.0979 21.2353 22.0202 21.3451 21.9444C21.4414 21.8784 21.543 21.7051 21.6632 21.8252C21.8219 21.9834 21.469 22.0727 21.6035 22.2421C21.8792 22.3878 22.0202 21.9709 22.2199 21.9646C22.2835 21.9626 22.5039 22.0882 22.6173 22.1628C22.7723 22.2645 22.825 22.4073 22.9947 22.4404C23.1036 22.462 23.2789 22.3989 23.4321 22.4205C23.6349 22.4494 23.7558 22.6233 23.9095 22.6187C24.0967 22.6138 24.1866 22.4103 24.3469 22.3806C24.6977 22.3165 24.8283 22.4197 24.9827 22.6386C25.1559 22.6686 25.162 22.4388 25.3206 22.5199C25.2337 22.6928 25.3503 22.7723 25.4198 22.9166C25.4649 23.0092 25.4575 23.0749 25.4996 23.1151C25.5943 23.2053 25.7776 23.2053 25.9166 23.2933C26.0633 23.3855 26.146 23.5569 26.3141 23.7499C26.4873 23.9473 26.7785 24.1517 27.0098 24.1662C27.2282 24.1802 27.4059 24.1044 27.5865 24.1266C27.9977 24.177 28.2532 24.382 28.5409 24.603C28.7015 24.7262 28.8466 24.812 28.8982 24.9598C28.9344 25.0629 28.9167 25.2012 28.9579 25.3169C29.0458 25.564 29.4067 25.6834 29.2762 26.1105C29.3359 26.2358 29.4697 26.2809 29.6139 26.3685C29.7292 26.4386 29.8268 26.5866 29.9516 26.6066C30.0324 26.6196 30.1202 26.5821 30.1901 26.5866C30.416 26.6021 30.571 26.6897 30.7668 26.7654C30.8883 26.8122 31.0439 26.8301 31.1247 26.8848C31.2257 26.9529 31.2388 27.1813 31.3632 27.2416C31.4445 27.2811 31.6253 27.2265 31.7607 27.2416C31.974 27.2661 32.2636 27.3968 32.4563 27.4005C32.5733 27.403 32.6703 27.3527 32.7742 27.3608C33.0155 27.3793 33.2051 27.5316 33.3923 27.7018C30.9979 31.5619 27.1457 34.4268 22.61 35.5217C22.5933 35.3478 22.5452 35.1728 22.5375 34.9995C22.5218 34.6224 22.5792 34.3559 22.5179 34.0075C22.4718 33.7439 22.4144 33.34 22.3191 33.1742C22.2127 32.9898 21.7945 32.6762 21.5839 32.559C21.4447 32.4819 21.2781 32.4548 21.1266 32.3805C20.8029 32.2218 20.1755 31.8871 20.0334 31.567C19.9923 31.4748 19.9978 31.3527 19.9537 31.2498C19.8674 31.0464 19.6852 30.8701 19.5563 30.674C19.3107 30.2998 19.1125 29.8304 18.8605 29.444C18.7331 29.2477 18.6227 29.0251 18.483 28.8688C18.4011 28.7766 18.1392 28.6899 18.1055 28.5513C18.0608 28.3678 17.9249 28.116 17.9465 27.9756C17.9752 27.7861 18.3446 27.6328 18.344 27.46C18.3434 27.3132 18.1467 27.2275 18.1055 27.1029C18.0052 26.7997 18.1643 26.6214 18.2842 26.3689C18.3238 26.2858 18.3625 26.1524 18.4037 26.0913C18.4765 25.9821 18.6245 25.9514 18.7215 25.8333C18.7757 25.7671 18.8099 25.6292 18.8806 25.5356C19.0317 25.3351 19.2756 25.26 19.3378 25.0792C19.3884 24.9318 19.4181 24.1949 19.3574 23.9484C19.3228 23.8055 19.1898 23.6868 19.139 23.5517C19.0491 23.3122 19.028 23.0504 18.781 23.0556C18.6286 23.0588 18.521 23.227 18.4231 23.3332C18.3995 23.4745 18.412 23.6272 18.264 23.6704C18.0381 23.7371 17.9515 23.433 17.6878 23.3532C17.583 23.3212 17.4157 23.3231 17.3501 23.2937C17.1578 23.2074 17.0957 22.9264 16.8928 22.8172C16.7232 22.7267 16.578 22.7581 16.4752 22.6188C16.4325 22.523 16.4661 22.3504 16.4556 22.222C16.2378 22.0948 16.0532 21.6202 15.7995 21.5082C15.6313 21.4336 15.3739 21.4405 15.1636 21.3693C15.0646 21.3358 14.9885 21.2925 14.885 21.2702C14.7576 21.2417 14.6264 21.2401 14.5277 21.1907C14.1342 20.9958 13.9218 20.364 13.4345 20.3775C13.2267 20.3828 13.0265 20.5769 12.8381 20.5758C12.6509 20.5747 12.3371 20.4266 12.1023 20.3178C11.8583 20.2046 11.5883 20.1429 11.387 20.0402C11.2243 19.9571 11.1114 19.805 10.9693 19.742C10.8605 19.6939 10.7012 19.6854 10.612 19.6433C10.485 19.5832 10.3524 19.4549 10.1944 19.3451C10.0444 19.2414 9.88213 19.0831 9.87625 18.9488C9.86972 18.7935 10.0193 18.6613 10.0353 18.5119C10.0865 18.0395 9.73775 17.6999 9.51829 17.4208C9.35567 17.2134 9.16492 17.0375 9.00185 16.8456C9.01097 16.7181 9.01097 16.6952 9.00185 16.568C8.87841 16.4483 8.77451 16.2708 8.64396 16.0916C8.52602 15.9299 8.29609 15.7574 8.26641 15.5761C8.22981 15.3531 8.3513 15.1572 8.26641 14.9408C8.12493 14.5817 7.62537 14.7439 7.68964 15.2188C7.70768 15.3496 7.89248 15.5255 7.94828 15.6552C8.00544 15.7876 7.99438 15.9524 8.0476 16.1117C8.09881 16.2645 8.25296 16.3962 8.30624 16.5682C8.39055 16.8399 8.38797 17.1325 8.4653 17.3023C8.53358 17.4531 8.78504 17.5958 8.64402 17.7784C8.45586 17.8173 8.38344 17.6296 8.26647 17.5204C8.20116 17.4596 7.9647 17.3445 7.92875 17.2032C7.89868 17.0865 8.00292 16.9292 7.96832 16.7863C7.90004 16.5064 7.33381 16.4992 7.33181 16.2111C7.33077 16.0303 7.56866 16.0087 7.57079 15.8338C7.57234 15.6425 7.30924 15.4805 7.25267 15.3182C7.201 15.1694 7.19253 14.9323 7.17333 14.723C7.15471 14.5265 7.17882 14.299 7.13317 14.1474C7.09244 14.0111 6.88721 13.8237 6.75562 13.7505C6.58156 13.6538 6.44338 13.694 6.35816 13.5523C6.28399 13.4286 6.23511 13.17 6.21907 13.0366C6.19036 12.798 6.21254 12.5372 6.19909 12.2826C6.18603 12.0275 6.15991 11.7829 6.19909 11.5089C6.29744 11.317 6.47668 11.2224 6.57697 11.0323C6.64686 10.9001 6.65669 10.7367 6.73564 10.596C6.88126 10.3368 7.19848 10.0974 7.41173 9.84188C7.64166 9.56669 7.85336 9.30307 7.98792 8.9885C8.03622 8.87689 8.1656 8.62937 8.14698 8.49249C8.12086 8.30174 7.76057 8.14442 7.78902 7.91727C7.80706 7.77657 8.00783 7.77857 8.06764 7.63968C8.09829 7.56804 8.12577 7.36798 8.12739 7.28237C8.13036 7.09104 8.02904 6.89156 8.06764 6.68717C8.10029 6.51285 8.36029 6.44217 8.22671 6.25071C8.09415 6.06113 7.85627 6.35301 7.70968 6.23073C7.57513 6.11797 7.73678 5.98179 7.74925 5.7743C7.75417 5.69179 7.70095 5.59739 7.70968 5.53622C7.72177 5.44757 7.89487 5.2982 7.84877 5.23865C7.77693 5.1478 7.69837 4.96443 7.58599 4.81804C9.80292 3.04466 12.46 1.79795 15.365 1.27064Z" fill="white"/>
</svg>
