<svg width="328" height="119" viewBox="0 0 328 119" fill="none" xmlns="http://www.w3.org/2000/svg">
<path d="M36.5224 60.25C42.4599 64.9688 48.0849 67.3281 53.3974 67.3281C55.2724 67.3281 56.7724 66.9531 57.8974 66.2031C59.0537 65.4531 59.6318 64.4844 59.6318 63.2969C59.6318 62.4844 59.4599 61.8594 59.1162 61.4219C58.7724 60.9531 58.0537 60.5469 56.9599 60.2031C55.8662 59.8281 54.1631 59.4531 51.8506 59.0781C44.8506 57.7344 39.6787 55.5625 36.3349 52.5625C32.9912 49.5625 31.3193 45.1719 31.3193 39.3906C31.3193 32.2344 34.0537 26.3594 39.5224 21.7656C45.0224 17.1406 52.0849 14.8281 60.7099 14.8281C64.6787 14.8281 68.3818 15.3281 71.8193 16.3281C75.2568 17.2969 79.0068 18.875 83.0693 21.0625L76.1787 38.6406C71.7724 35.1094 67.0693 33.3438 62.0693 33.3438C60.3193 33.3438 58.9131 33.6719 57.8506 34.3281C56.8193 34.9531 56.3037 35.8125 56.3037 36.9062C56.3037 37.8438 56.6943 38.5781 57.4756 39.1094C58.2881 39.6406 59.7099 40.0938 61.7412 40.4688L66.2881 41.5C72.8506 43 77.6162 45.3281 80.5849 48.4844C83.5849 51.6094 85.0849 56 85.0849 61.6562C85.0849 69.0938 82.3349 75.0938 76.8349 79.6562C71.3349 84.1875 64.1006 86.4531 55.1318 86.4531C46.0381 86.4531 37.2412 84.1094 28.7412 79.4219L36.5224 60.25ZM89.2099 15.7656H113.96L132.288 45.8125C132.788 46.8125 133.366 47.9844 134.022 49.3281C134.71 50.6406 135.21 51.625 135.522 52.2812C135.866 52.9375 136.272 53.7812 136.741 54.8125C137.21 55.8125 137.679 56.8906 138.147 58.0469C138.054 57.7031 137.819 56.9219 137.444 55.7031C137.101 54.4531 136.882 53.6562 136.788 53.3125C136.694 52.9375 136.522 52.2656 136.272 51.2969C136.054 50.3281 135.897 49.5781 135.804 49.0469C135.741 48.4844 135.663 47.7969 135.569 46.9844C135.507 46.1719 135.476 45.375 135.476 44.5938V15.7656H159.851V85H134.585L116.726 55.7969C114.601 51.7969 112.819 47.9375 111.382 44.2188C112.288 47.125 112.929 49.4531 113.304 51.2031C113.679 52.9531 113.866 54.875 113.866 56.9688V85H89.2099V15.7656ZM165.991 15.7656H190.835V38.3594C190.835 41.6406 190.647 44.9375 190.272 48.25C190.804 46.8125 191.507 45.0625 192.382 43C193.257 40.9062 193.804 39.5781 194.022 39.0156L206.304 15.7656H233.163L212.069 49.5625L235.835 85H207.429L192.569 59.0781C191.694 57.3906 190.897 55.6562 190.179 53.875C190.46 56 190.647 57.9219 190.741 59.6406V85H165.991V15.7656ZM235.085 15.7656H267.71C275.397 15.7656 281.757 18.0156 286.788 22.5156C291.851 26.9844 294.382 32.6094 294.382 39.3906C294.382 48.9531 290.194 55.125 281.819 57.9062L299.772 85H271.179L261.851 65.9688C261.538 65.4062 261.241 64.8281 260.96 64.2344C260.71 63.6406 260.366 62.8438 259.929 61.8438C259.522 60.8438 259.132 59.9219 258.757 59.0781C259.538 63.9844 259.929 67.25 259.929 68.875V85H235.085V15.7656ZM260.022 46.7031H263.304C265.429 46.7031 267.085 46.1562 268.272 45.0625C269.491 43.9688 270.101 42.4688 270.101 40.5625C270.101 38.6875 269.476 37.2188 268.226 36.1562C267.007 35.0625 265.366 34.5156 263.304 34.5156H260.022V46.7031Z" fill="black"/>
<line x1="0.192074" y1="13.0186" x2="327.192" y2="77.0186" stroke="white" stroke-width="2"/>
</svg>
