<svg width="362" height="193" viewBox="0 0 362 193" fill="none" xmlns="http://www.w3.org/2000/svg">
<path fill-rule="evenodd" clip-rule="evenodd" d="M217.803 16.6173C221.962 16.5506 226.118 16.6174 230.272 16.8175C230.482 17.0422 230.616 17.3092 230.675 17.6183C222.837 28.6255 214.994 39.6369 207.145 50.6525C207.858 66.1322 208.595 81.615 209.357 97.1007C204.833 97.2292 200.341 97.0955 195.882 96.7003C195.248 85.628 194.711 74.5497 194.273 63.4658C192.772 62.7623 191.7 63.1627 191.056 64.6671C187.891 75.3213 184.807 85.9992 181.805 96.7003C177.077 97.0959 172.318 97.2292 167.526 97.1007C167.946 94.4075 168.55 91.7383 169.336 89.0924C176.375 65.401 183.413 41.7101 190.452 18.0187C190.615 17.6402 190.883 17.3732 191.257 17.2179C195.813 17.0177 200.372 16.951 204.932 17.0177C202.786 24.629 200.641 32.2369 198.497 39.8413C199.778 40.0337 200.918 39.7667 201.916 39.0405C207.116 31.4842 212.412 24.0098 217.803 16.6173Z" fill="#64516A"/>
<path fill-rule="evenodd" clip-rule="evenodd" d="M227.054 97.5011C227.407 97.5536 227.675 97.4202 227.859 97.1007C223.711 96.7007 219.555 96.5673 215.39 96.7003C215.133 96.4612 214.999 96.1277 214.988 95.6993C222.403 69.549 229.979 43.4551 237.713 17.4181C237.914 17.2179 238.115 17.0177 238.317 16.8175C247.969 16.6173 257.622 16.5506 267.277 16.6173C266.363 20.9053 265.156 25.1097 263.657 29.2304C258.696 29.3638 253.735 29.4973 248.774 29.6308C246.468 35.7156 244.658 41.9219 243.344 48.2501C248.072 48.6457 252.831 48.779 257.623 48.6505C256.938 52.7644 255.731 56.7016 254.003 60.4627C249.177 60.5961 244.35 60.7298 239.523 60.8632C237.001 67.8268 234.722 74.9009 232.685 82.0851C232.744 82.3943 232.878 82.6613 233.088 82.886C238.987 83.0193 244.886 83.153 250.785 83.2864C250.995 83.511 251.129 83.7781 251.188 84.0872C250.236 86.205 249.767 88.4073 249.78 90.6941C271.257 84.1461 292.776 77.6726 314.337 71.2739C315.044 70.9544 315.715 71.0213 316.348 71.4741C254.154 102.431 191.809 133.197 129.314 163.77C115.629 170.18 101.283 174.318 86.2766 176.183C74.8611 177.571 64.6716 174.768 55.7077 167.774C47.3801 159.259 44.0951 149.048 45.8532 137.142C48.0458 124.72 52.6041 113.241 59.5288 102.707C67.1376 91.8421 75.5171 81.5646 84.6677 71.8746C85.1158 72.3643 85.1829 72.898 84.8688 73.4762C78.4429 86.7624 76.5661 100.644 79.2377 115.119C81.5666 123.04 86.4604 128.712 93.9188 132.137C97.6482 132.759 101.402 132.892 105.181 132.537C109.083 131.8 112.971 130.999 116.845 130.135C153.543 119.133 190.28 108.255 227.054 97.5011Z" fill="#64516A"/>
<path fill-rule="evenodd" clip-rule="evenodd" d="M140.175 17.0176C144.867 17.0176 149.56 17.0176 154.252 17.0176C154.046 18.7712 153.71 20.5063 153.247 22.223C145.554 47.2525 138.113 72.3449 130.923 97.501C125.963 97.501 121.002 97.501 116.041 97.501C116.276 84.6833 116.478 71.87 116.645 59.0611C115.602 58.4677 114.664 58.6015 113.829 59.4616C110.077 72.1335 106.39 84.8134 102.768 97.501C97.9412 97.501 93.1145 97.501 88.2878 97.501C95.8315 70.7673 103.742 44.1397 112.019 17.6182C117.38 17.418 122.743 17.3513 128.108 17.418C127.677 28.3004 127.141 39.1783 126.499 50.0518C126.068 52.3582 127.006 53.2259 129.315 52.6545C132.692 40.6993 136.312 28.8202 140.175 17.0176Z" fill="#64516A"/>
<path fill-rule="evenodd" clip-rule="evenodd" d="M155.861 97.1007C151.303 97.1007 146.744 97.1007 142.186 97.1007C142.186 96.4332 142.186 95.7661 142.186 95.0986C149.603 69.0119 157.379 43.0514 165.514 17.2179C170.205 17.0177 174.898 16.951 179.592 17.0177C171.992 43.8487 164.082 70.5427 155.861 97.1007Z" fill="#64516A"/>
<path fill-rule="evenodd" clip-rule="evenodd" d="M215.39 96.7002C219.555 96.5672 223.711 96.7006 227.859 97.1006C227.675 97.4201 227.407 97.5534 227.055 97.501C223.166 97.2339 219.278 96.9672 215.39 96.7002Z" fill="#626262"/>
<path fill-rule="evenodd" clip-rule="evenodd" d="M142.186 95.0986C142.186 95.7661 142.186 96.4332 142.186 97.1007C146.744 97.1007 151.303 97.1007 155.861 97.1007C151.24 97.4991 146.548 97.6325 141.783 97.5011C141.665 96.6062 141.799 95.8054 142.186 95.0986Z" fill="#494949"/>
</svg>
