<svg width="310" height="310" viewBox="0 0 310 310" fill="none" xmlns="http://www.w3.org/2000/svg">
<g clip-path="url(#clip0_19_4)">
<path d="M166.425 79.4919C165.415 79.6477 164.443 83.3675 162.491 85.3053C161.063 86.7038 159.281 86.6164 158.334 88.3454C157.975 88.9913 158.091 90.0939 157.683 91.1525C156.887 93.2699 154.08 93.4592 154.08 95.7661C154.07 98.2575 156.421 98.7333 158.455 100.501C160.044 101.924 160.199 102.905 162.122 103.594C163.764 104.153 166.206 102.327 168.406 102.983C170.213 103.522 171.942 103.91 172.35 105.765C172.709 107.475 172.325 110.126 170.135 109.821C169.397 109.738 166.197 108.66 162.263 109.077C157.518 109.617 152.103 111.165 151.574 116.455C151.282 119.412 154.939 122.899 158.47 122.19C160.913 121.709 159.757 118.829 161.088 117.431C162.831 115.639 172.709 123.686 181.892 123.686C185.758 123.686 188.633 122.71 191.489 119.718C191.756 119.49 192.081 118.999 192.494 118.97C192.883 118.999 193.562 119.383 193.786 119.548C201.182 125.492 206.772 137.415 233.954 137.556C237.775 137.575 242.131 139.401 245.686 142.645C248.858 145.578 250.713 150.138 252.514 154.767C255.234 161.712 260.11 168.467 267.501 175.985C267.905 176.387 273.99 181.118 274.475 181.472C274.553 181.521 275 182.589 274.845 183.186C274.665 187.693 274.009 200.801 283.78 201.393C286.17 201.514 285.543 199.834 285.543 198.678C285.538 196.396 285.12 194.128 286.325 191.792C287.971 188.577 282.833 187.096 282.984 180.146C283.091 174.965 278.739 175.848 276.53 171.9C275.257 169.613 274.126 168.399 274.208 165.601C274.704 149.857 270.857 139.513 268.939 136.973C267.444 135.055 266.205 134.292 267.574 133.403C275.728 128.018 277.579 123.006 277.579 123.006C281.915 112.812 285.815 103.502 291.191 99.4036C292.274 98.5583 295.052 96.4849 296.757 95.6689C301.773 93.3037 304.415 91.8713 305.872 90.4529C308.179 88.2045 310 83.5181 307.79 80.6771C305.042 77.1706 300.287 79.9534 298.189 81.1965C283.198 90.0939 280.988 105.789 275.796 114.803C271.654 122.005 264.918 127.294 258.896 127.726C254.379 128.061 249.514 127.148 244.667 125.021C232.88 119.854 226.431 113.181 224.911 112.001C221.744 109.558 197.161 85.4266 177.245 84.4408C177.245 84.4408 174.773 79.4922 174.151 79.4096C172.694 79.2249 171.204 82.367 170.135 82.7317C169.13 83.0663 167.44 79.327 166.425 79.4922V79.4919ZM78.747 223.519C76.8723 223.475 75.2796 221.936 75.2796 220.032L75.2844 157.909H54.8097V226.389C54.8097 229.745 57.5291 232.484 60.8654 232.484H96.6526C100.013 232.484 102.699 229.745 102.699 226.389V157.909H82.2437L82.2242 220.032C82.2242 221.936 80.6311 223.475 78.747 223.519ZM147.3 157.909H116.311C112.645 157.909 109.658 160.891 109.658 164.596V232.484H130.152V170.21C130.166 168.302 131.711 166.792 133.615 166.792C135.528 166.792 137.062 168.268 137.106 170.157V232.484H157.518V170.156C157.542 168.267 159.077 166.791 160.985 166.791C162.879 166.791 164.443 168.302 164.458 170.21V232.484H184.952V164.596C184.952 160.891 181.96 157.909 178.294 157.909H147.3ZM27.4096 170.341C27.4242 168.267 25.7342 166.791 23.9421 166.791H20.465V204.511H23.9421C25.7489 204.511 27.4246 203.073 27.4096 201.01V170.341ZM41.1485 213.743H20.465V232.484H0V157.909H41.2799C44.9753 157.909 47.8599 160.91 47.8599 164.625V207.027C47.8599 210.747 44.8638 213.743 41.1485 213.743ZM255.181 215.807C251.068 215.807 247.614 219.362 247.614 223.67C247.614 227.992 251.068 231.518 255.312 231.518C259.523 231.518 262.932 227.992 262.932 223.67C262.932 219.352 259.523 215.807 255.312 215.807H255.181ZM264.398 223.645C264.398 228.71 260.338 232.829 255.312 232.829C250.232 232.829 246.153 228.74 246.153 223.645C246.153 218.648 250.232 214.472 255.161 214.472C260.338 214.472 264.398 218.522 264.398 223.645Z" fill="#742222"/>
<path d="M254.365 223.063C255.788 223.063 256.536 222.557 256.536 221.548C256.536 220.649 255.812 220.188 254.428 220.188H254.02V223.063H254.365ZM259.605 228.958H257.162L254.02 224.777V228.958H252.024V218.386H254.122C256.973 218.386 258.488 219.464 258.488 221.523C258.488 222.897 257.595 224.117 256.346 224.481L256.2 224.534L259.605 228.958ZM219.311 204.526V170.186C219.263 168.287 217.733 166.83 215.824 166.83C213.935 166.83 212.371 168.345 212.357 170.239V204.526H219.311ZM219.311 232.484V213.763H212.357V232.484H191.902V164.596C191.902 160.891 194.888 157.909 198.555 157.909H233.113C236.79 157.909 239.776 160.891 239.776 164.596V232.484L219.311 232.484Z" fill="#742222"/>
</g>
<defs>
<clipPath id="clip0_19_4">
<rect width="310" height="310" fill="white"/>
</clipPath>
</defs>
</svg>
