<svg width="27" height="35" viewBox="0 0 27 35" fill="none" xmlns="http://www.w3.org/2000/svg">
<path d="M6.67833 2.15691L6.67829 2.15693C3.82182 3.80713 1.77989 6.47 0.926226 9.65838L0.926219 9.6584C0.072378 12.8467 0.510377 16.1745 2.15951 19.0331L6.67833 2.15691ZM6.67833 2.15691C8.55476 1.0727 10.6861 0.5 12.8411 0.5C17.2423 0.5 21.3435 2.86815 23.5419 6.67868C25.191 9.53751 25.629 12.8651 24.7754 16.0534C24.1223 18.4924 22.7723 20.6211 20.8975 22.2263L20.5821 22.4963L20.7896 22.8559L26.3172 32.4366L23.0631 34.3168L17.5348 24.7349L17.3275 24.3755M6.67833 2.15691L17.3275 24.3755M17.3275 24.3755L16.936 24.513M17.3275 24.3755L16.936 24.513M16.936 24.513C15.6281 24.9726 14.2492 25.2118 12.8605 25.2118C8.45918 25.2118 4.35818 22.8437 2.15953 19.0332L16.936 24.513ZM20.2881 8.55935L19.855 8.80922L20.2881 8.55935C18.7579 5.90727 15.9053 4.26082 12.8411 4.26082C11.3432 4.26082 9.86196 4.65983 8.557 5.41372L8.55695 5.41375C6.57129 6.56118 5.14919 8.41572 4.55581 10.6318C3.96224 12.8481 4.26716 15.1655 5.41353 17.1525C6.9437 19.8046 9.79651 21.451 12.8605 21.451C14.3584 21.451 15.8397 21.052 17.1448 20.2979C19.1305 19.1507 20.5526 17.2961 21.146 15.08C21.7394 12.8639 21.4345 10.5463 20.2881 8.55935Z" fill="white" stroke="black"/>
</svg>
