<svg width="1550" height="30" viewBox="0 0 1550 30" fill="none" xmlns="http://www.w3.org/2000/svg">
<path d="M740.243 16.4414C741.204 17.543 742.235 18.0938 743.337 18.0938C744.009 18.0938 744.552 17.8984 744.966 17.5078C745.388 17.1172 745.598 16.6172 745.598 16.0078C745.598 15.5156 745.458 15.1211 745.177 14.8242C744.895 14.5195 744.411 14.2266 743.723 13.9453L742.809 13.582C741.411 13.0977 740.38 12.4531 739.716 11.6484C739.059 10.8359 738.731 9.83984 738.731 8.66016C738.731 7.13672 739.29 5.86719 740.407 4.85156C741.524 3.82813 742.919 3.31641 744.591 3.31641C745.528 3.31641 746.352 3.46094 747.063 3.75C747.782 4.03125 748.493 4.50781 749.196 5.17969L747.298 7.80469C746.876 7.33594 746.466 7 746.067 6.79688C745.669 6.58594 745.223 6.48047 744.731 6.48047C744.106 6.48047 743.598 6.66406 743.208 7.03125C742.817 7.39063 742.622 7.86328 742.622 8.44922C742.622 8.92578 742.763 9.32031 743.044 9.63281C743.333 9.9375 743.786 10.207 744.403 10.4414L744.977 10.6523C745.821 10.9727 746.509 11.2812 747.04 11.5781C747.571 11.8672 748.028 12.2109 748.411 12.6094C748.802 13 749.079 13.4492 749.243 13.957C749.407 14.457 749.489 15.0625 749.489 15.7734C749.489 17.4531 748.923 18.8125 747.79 19.8516C746.657 20.8906 745.173 21.4102 743.337 21.4102C741.227 21.4102 739.485 20.6641 738.11 19.1719L740.243 16.4414ZM751.315 3.69141H761.967V6.9375H758.416V21H754.795V6.96094H751.315V3.69141ZM765 16.9453C764.203 15.5703 763.805 14.043 763.805 12.3633C763.805 10.6836 764.203 9.15625 765 7.78125C765.797 6.40625 766.895 5.32813 768.293 4.54688C769.691 3.75781 771.246 3.36328 772.957 3.36328C774.23 3.36328 775.43 3.59375 776.555 4.05469C777.688 4.51562 778.656 5.14453 779.461 5.94141C780.266 6.73828 780.902 7.69531 781.371 8.8125C781.84 9.92188 782.074 11.1055 782.074 12.3633C782.074 13.6211 781.84 14.8086 781.371 15.9258C780.902 17.0352 780.266 17.9883 779.461 18.7852C778.656 19.582 777.688 20.2109 776.555 20.6719C775.43 21.1328 774.23 21.3633 772.957 21.3633C771.254 21.3633 769.703 20.9727 768.305 20.1914C766.906 19.4023 765.805 18.3203 765 16.9453ZM772.957 6.82031C771.434 6.82031 770.152 7.35547 769.113 8.42578C768.074 9.48828 767.555 10.8008 767.555 12.3633C767.555 13.9258 768.078 15.2461 769.125 16.3242C770.172 17.3945 771.449 17.9297 772.957 17.9297C774.457 17.9297 775.727 17.3906 776.766 16.3125C777.805 15.2344 778.324 13.918 778.324 12.3633C778.324 10.8086 777.805 9.49609 776.766 8.42578C775.727 7.35547 774.457 6.82031 772.957 6.82031ZM786.373 3.69141H791.728C793.705 3.69141 795.236 4.13672 796.322 5.02734C797.408 5.91797 797.951 7.17188 797.951 8.78906C797.951 11.4844 796.607 13.1797 793.92 13.875L799.24 21H794.705L790.744 15.0469C790.478 14.6484 790.173 14.1445 789.83 13.5352C789.916 14.1055 789.959 14.707 789.959 15.3398V21H786.373V3.69141ZM789.935 11.6836H791.154C792.068 11.6836 792.783 11.4492 793.298 10.9805C793.822 10.5117 794.084 9.86719 794.084 9.04688C794.084 7.59375 793.33 6.86719 791.822 6.86719H789.935V11.6836ZM802.484 3.69141H811.999V6.86719H806.116V10.6758H811.8V13.7812H806.093V17.8359H812.023V21H802.484V3.69141Z" fill="black"/>
<line x1="817" y1="11.5" x2="1550" y2="11.5" stroke="black"/>
<line y1="11.5" x2="733" y2="11.5" stroke="black"/>
</svg>
